<?xml version="1.0" encoding="UTF-8"?>
<svg xmlns="http://www.w3.org/2000/svg" xmlns:xlink="http://www.w3.org/1999/xlink" width="21px" height="14px" viewBox="0 0 21 14" version="1.1">
<g id="surface1">
<rect x="0" y="0" width="21" height="14" style="fill:rgb(0%,67.058824%,76.078431%);fill-opacity:1;stroke:none;"/>
<path style=" stroke:none;fill-rule:nonzero;fill:rgb(100%,92.54902%,17.647059%);fill-opacity:1;" d="M 13.511719 5.878906 C 13.511719 6.921875 12.667969 7.765625 11.625 7.765625 C 10.585938 7.765625 9.742188 6.921875 9.742188 5.878906 C 9.742188 4.839844 10.585938 3.996094 11.625 3.996094 C 12.667969 3.996094 13.511719 4.839844 13.511719 5.878906 Z M 13.511719 5.878906 "/>
<path style=" stroke:none;fill-rule:nonzero;fill:rgb(100%,92.54902%,17.647059%);fill-opacity:1;" d="M 11.625 3.738281 C 11.738281 3.738281 11.78125 3.667969 11.78125 3.585938 C 11.78125 3.472656 11.625 2.9375 11.625 2.9375 C 11.625 2.9375 11.472656 3.472656 11.472656 3.585938 C 11.472656 3.667969 11.515625 3.738281 11.625 3.738281 Z M 11.625 3.738281 "/>
<path style=" stroke:none;fill-rule:nonzero;fill:rgb(100%,92.54902%,17.647059%);fill-opacity:1;" d="M 13.765625 5.878906 C 13.769531 5.992188 13.839844 6.035156 13.921875 6.035156 C 14.035156 6.035156 14.566406 5.878906 14.566406 5.878906 C 14.566406 5.878906 14.035156 5.726562 13.921875 5.726562 C 13.839844 5.726562 13.765625 5.769531 13.765625 5.878906 Z M 13.765625 5.878906 "/>
<path style=" stroke:none;fill-rule:nonzero;fill:rgb(100%,92.54902%,17.647059%);fill-opacity:1;" d="M 11.625 8.019531 C 11.515625 8.023438 11.472656 8.09375 11.472656 8.175781 C 11.472656 8.289062 11.625 8.820312 11.625 8.820312 C 11.625 8.820312 11.78125 8.289062 11.78125 8.175781 C 11.78125 8.09375 11.738281 8.019531 11.625 8.019531 Z M 11.625 8.019531 "/>
<path style=" stroke:none;fill-rule:nonzero;fill:rgb(100%,92.54902%,17.647059%);fill-opacity:1;" d="M 9.484375 5.878906 C 9.484375 5.769531 9.414062 5.726562 9.332031 5.726562 C 9.21875 5.726562 8.683594 5.878906 8.683594 5.878906 C 8.683594 5.878906 9.21875 6.035156 9.332031 6.035156 C 9.414062 6.035156 9.484375 5.992188 9.484375 5.878906 Z M 9.484375 5.878906 "/>
<path style=" stroke:none;fill-rule:nonzero;fill:rgb(100%,92.54902%,17.647059%);fill-opacity:1;" d="M 12.445312 3.902344 C 12.550781 3.945312 12.617188 3.894531 12.648438 3.816406 C 12.691406 3.714844 12.753906 3.164062 12.753906 3.164062 C 12.753906 3.164062 12.40625 3.597656 12.363281 3.699219 C 12.332031 3.777344 12.34375 3.859375 12.445312 3.902344 Z M 12.445312 3.902344 "/>
<path style=" stroke:none;fill-rule:nonzero;fill:rgb(100%,92.54902%,17.647059%);fill-opacity:1;" d="M 13.605469 6.699219 C 13.5625 6.804688 13.613281 6.867188 13.6875 6.902344 C 13.792969 6.945312 14.34375 7.003906 14.34375 7.003906 C 14.34375 7.003906 13.910156 6.660156 13.808594 6.617188 C 13.730469 6.585938 13.648438 6.59375 13.605469 6.699219 Z M 13.605469 6.699219 "/>
<path style=" stroke:none;fill-rule:nonzero;fill:rgb(100%,92.54902%,17.647059%);fill-opacity:1;" d="M 10.808594 7.859375 C 10.703125 7.816406 10.636719 7.863281 10.605469 7.941406 C 10.5625 8.046875 10.5 8.597656 10.5 8.597656 C 10.5 8.597656 10.847656 8.164062 10.890625 8.058594 C 10.921875 7.984375 10.910156 7.902344 10.808594 7.859375 Z M 10.808594 7.859375 "/>
<path style=" stroke:none;fill-rule:nonzero;fill:rgb(100%,92.54902%,17.647059%);fill-opacity:1;" d="M 9.648438 5.0625 C 9.691406 4.957031 9.640625 4.890625 9.5625 4.859375 C 9.460938 4.816406 8.910156 4.753906 8.910156 4.753906 C 8.910156 4.753906 9.34375 5.101562 9.445312 5.144531 C 9.523438 5.175781 9.605469 5.164062 9.648438 5.0625 Z M 9.648438 5.0625 "/>
<path style=" stroke:none;fill-rule:nonzero;fill:rgb(100%,92.54902%,17.647059%);fill-opacity:1;" d="M 13.140625 4.367188 C 13.21875 4.445312 13.300781 4.425781 13.359375 4.367188 C 13.4375 4.285156 13.707031 3.800781 13.707031 3.800781 C 13.707031 3.800781 13.21875 4.070312 13.140625 4.148438 C 13.082031 4.207031 13.0625 4.289062 13.140625 4.367188 Z M 13.140625 4.367188 "/>
<path style=" stroke:none;fill-rule:nonzero;fill:rgb(100%,92.54902%,17.647059%);fill-opacity:1;" d="M 13.140625 7.394531 C 13.0625 7.472656 13.082031 7.554688 13.140625 7.613281 C 13.21875 7.691406 13.707031 7.960938 13.707031 7.960938 C 13.707031 7.960938 13.4375 7.472656 13.359375 7.394531 C 13.300781 7.335938 13.21875 7.3125 13.140625 7.394531 Z M 13.140625 7.394531 "/>
<path style=" stroke:none;fill-rule:nonzero;fill:rgb(100%,92.54902%,17.647059%);fill-opacity:1;" d="M 10.113281 7.394531 C 10.03125 7.316406 9.953125 7.335938 9.894531 7.394531 C 9.816406 7.472656 9.546875 7.960938 9.546875 7.960938 C 9.546875 7.960938 10.03125 7.691406 10.113281 7.613281 C 10.171875 7.554688 10.191406 7.472656 10.113281 7.394531 Z M 10.113281 7.394531 "/>
<path style=" stroke:none;fill-rule:nonzero;fill:rgb(100%,92.54902%,17.647059%);fill-opacity:1;" d="M 10.113281 4.367188 C 10.191406 4.285156 10.171875 4.207031 10.113281 4.148438 C 10.03125 4.070312 9.546875 3.800781 9.546875 3.800781 C 9.546875 3.800781 9.816406 4.285156 9.894531 4.367188 C 9.953125 4.425781 10.035156 4.445312 10.113281 4.367188 Z M 10.113281 4.367188 "/>
<path style=" stroke:none;fill-rule:nonzero;fill:rgb(100%,92.54902%,17.647059%);fill-opacity:1;" d="M 13.605469 5.0625 C 13.648438 5.164062 13.730469 5.175781 13.808594 5.144531 C 13.910156 5.101562 14.34375 4.753906 14.34375 4.753906 C 14.34375 4.753906 13.792969 4.816406 13.6875 4.859375 C 13.613281 4.890625 13.5625 4.957031 13.605469 5.0625 Z M 13.605469 5.0625 "/>
<path style=" stroke:none;fill-rule:nonzero;fill:rgb(100%,92.54902%,17.647059%);fill-opacity:1;" d="M 12.445312 7.859375 C 12.34375 7.902344 12.332031 7.984375 12.363281 8.058594 C 12.40625 8.164062 12.753906 8.597656 12.753906 8.597656 C 12.753906 8.597656 12.691406 8.046875 12.648438 7.941406 C 12.617188 7.863281 12.550781 7.816406 12.445312 7.859375 Z M 12.445312 7.859375 "/>
<path style=" stroke:none;fill-rule:nonzero;fill:rgb(100%,92.54902%,17.647059%);fill-opacity:1;" d="M 9.648438 6.699219 C 9.605469 6.597656 9.523438 6.585938 9.445312 6.617188 C 9.34375 6.660156 8.910156 7.003906 8.910156 7.003906 C 8.910156 7.003906 9.460938 6.945312 9.5625 6.902344 C 9.640625 6.867188 9.691406 6.800781 9.648438 6.699219 Z M 9.648438 6.699219 "/>
<path style=" stroke:none;fill-rule:nonzero;fill:rgb(100%,92.54902%,17.647059%);fill-opacity:1;" d="M 10.808594 3.902344 C 10.910156 3.859375 10.921875 3.777344 10.890625 3.699219 C 10.847656 3.597656 10.5 3.164062 10.5 3.164062 C 10.5 3.164062 10.5625 3.714844 10.605469 3.816406 C 10.636719 3.894531 10.703125 3.945312 10.808594 3.902344 Z M 10.808594 3.902344 "/>
<path style=" stroke:none;fill-rule:nonzero;fill:rgb(100%,92.54902%,17.647059%);fill-opacity:1;" d="M 12.042969 3.78125 C 12.15625 3.800781 12.210938 3.742188 12.226562 3.65625 C 12.246094 3.546875 12.199219 2.996094 12.199219 2.996094 C 12.199219 2.996094 11.945312 3.488281 11.921875 3.597656 C 11.90625 3.679688 11.933594 3.757812 12.042969 3.78125 Z M 12.042969 3.78125 "/>
<path style=" stroke:none;fill-rule:nonzero;fill:rgb(100%,92.54902%,17.647059%);fill-opacity:1;" d="M 13.726562 6.296875 C 13.707031 6.40625 13.765625 6.460938 13.847656 6.480469 C 13.957031 6.5 14.511719 6.453125 14.511719 6.453125 C 14.511719 6.453125 14.019531 6.199219 13.910156 6.175781 C 13.828125 6.160156 13.746094 6.1875 13.726562 6.296875 Z M 13.726562 6.296875 "/>
<path style=" stroke:none;fill-rule:nonzero;fill:rgb(100%,92.54902%,17.647059%);fill-opacity:1;" d="M 11.210938 7.980469 C 11.097656 7.960938 11.042969 8.019531 11.027344 8.101562 C 11.007812 8.210938 11.054688 8.765625 11.054688 8.765625 C 11.054688 8.765625 11.308594 8.273438 11.328125 8.160156 C 11.347656 8.078125 11.320312 8 11.210938 7.980469 Z M 11.210938 7.980469 "/>
<path style=" stroke:none;fill-rule:nonzero;fill:rgb(100%,92.54902%,17.647059%);fill-opacity:1;" d="M 9.527344 5.460938 C 9.546875 5.351562 9.488281 5.296875 9.40625 5.28125 C 9.296875 5.257812 8.742188 5.304688 8.742188 5.304688 C 8.742188 5.304688 9.234375 5.5625 9.34375 5.582031 C 9.425781 5.597656 9.503906 5.570312 9.527344 5.460938 Z M 9.527344 5.460938 "/>
<path style=" stroke:none;fill-rule:nonzero;fill:rgb(100%,92.54902%,17.647059%);fill-opacity:1;" d="M 12.816406 4.101562 C 12.910156 4.160156 12.984375 4.125 13.03125 4.054688 C 13.09375 3.964844 13.261719 3.433594 13.261719 3.433594 C 13.261719 3.433594 12.835938 3.792969 12.773438 3.886719 C 12.726562 3.957031 12.722656 4.039062 12.816406 4.101562 Z M 12.816406 4.101562 "/>
<path style=" stroke:none;fill-rule:nonzero;fill:rgb(100%,92.54902%,17.647059%);fill-opacity:1;" d="M 13.40625 7.070312 C 13.34375 7.164062 13.378906 7.238281 13.449219 7.285156 C 13.542969 7.347656 14.074219 7.515625 14.074219 7.515625 C 14.074219 7.515625 13.714844 7.089844 13.621094 7.027344 C 13.550781 6.980469 13.46875 6.976562 13.40625 7.070312 Z M 13.40625 7.070312 "/>
<path style=" stroke:none;fill-rule:nonzero;fill:rgb(100%,92.54902%,17.647059%);fill-opacity:1;" d="M 10.4375 7.660156 C 10.34375 7.597656 10.269531 7.632812 10.222656 7.703125 C 10.160156 7.796875 9.992188 8.324219 9.992188 8.324219 C 9.992188 8.324219 10.417969 7.96875 10.480469 7.875 C 10.527344 7.804688 10.53125 7.722656 10.4375 7.660156 Z M 10.4375 7.660156 "/>
<path style=" stroke:none;fill-rule:nonzero;fill:rgb(100%,92.54902%,17.647059%);fill-opacity:1;" d="M 9.847656 4.691406 C 9.90625 4.597656 9.875 4.523438 9.804688 4.476562 C 9.710938 4.414062 9.179688 4.246094 9.179688 4.246094 C 9.179688 4.246094 9.539062 4.671875 9.632812 4.734375 C 9.703125 4.777344 9.785156 4.785156 9.847656 4.691406 Z M 9.847656 4.691406 "/>
<path style=" stroke:none;fill-rule:nonzero;fill:rgb(100%,92.54902%,17.647059%);fill-opacity:1;" d="M 13.40625 4.691406 C 13.46875 4.78125 13.550781 4.777344 13.621094 4.734375 C 13.714844 4.671875 14.074219 4.246094 14.074219 4.246094 C 14.074219 4.246094 13.542969 4.414062 13.449219 4.476562 C 13.378906 4.523438 13.34375 4.597656 13.40625 4.691406 Z M 13.40625 4.691406 "/>
<path style=" stroke:none;fill-rule:nonzero;fill:rgb(100%,92.54902%,17.647059%);fill-opacity:1;" d="M 12.816406 7.660156 C 12.722656 7.722656 12.726562 7.804688 12.773438 7.875 C 12.835938 7.96875 13.261719 8.324219 13.261719 8.324219 C 13.261719 8.324219 13.09375 7.796875 13.03125 7.703125 C 12.984375 7.632812 12.910156 7.597656 12.816406 7.660156 Z M 12.816406 7.660156 "/>
<path style=" stroke:none;fill-rule:nonzero;fill:rgb(100%,92.54902%,17.647059%);fill-opacity:1;" d="M 9.847656 7.070312 C 9.785156 6.976562 9.703125 6.980469 9.632812 7.027344 C 9.539062 7.089844 9.179688 7.515625 9.179688 7.515625 C 9.179688 7.515625 9.710938 7.347656 9.804688 7.285156 C 9.875 7.238281 9.910156 7.164062 9.847656 7.070312 Z M 9.847656 7.070312 "/>
<path style=" stroke:none;fill-rule:nonzero;fill:rgb(100%,92.54902%,17.647059%);fill-opacity:1;" d="M 10.4375 4.101562 C 10.53125 4.035156 10.527344 3.957031 10.480469 3.886719 C 10.417969 3.792969 9.992188 3.433594 9.992188 3.433594 C 9.992188 3.433594 10.160156 3.964844 10.222656 4.054688 C 10.269531 4.125 10.34375 4.164062 10.4375 4.101562 Z M 10.4375 4.101562 "/>
<path style=" stroke:none;fill-rule:nonzero;fill:rgb(100%,92.54902%,17.647059%);fill-opacity:1;" d="M 13.726562 5.460938 C 13.75 5.570312 13.828125 5.597656 13.910156 5.582031 C 14.019531 5.5625 14.511719 5.304688 14.511719 5.304688 C 14.511719 5.304688 13.957031 5.257812 13.847656 5.28125 C 13.765625 5.296875 13.703125 5.351562 13.726562 5.460938 Z M 13.726562 5.460938 "/>
<path style=" stroke:none;fill-rule:nonzero;fill:rgb(100%,92.54902%,17.647059%);fill-opacity:1;" d="M 12.042969 7.980469 C 11.933594 8.003906 11.90625 8.078125 11.921875 8.160156 C 11.945312 8.273438 12.199219 8.765625 12.199219 8.765625 C 12.199219 8.765625 12.246094 8.210938 12.226562 8.101562 C 12.210938 8.019531 12.152344 7.957031 12.042969 7.980469 Z M 12.042969 7.980469 "/>
<path style=" stroke:none;fill-rule:nonzero;fill:rgb(100%,92.54902%,17.647059%);fill-opacity:1;" d="M 9.527344 6.296875 C 9.503906 6.1875 9.425781 6.160156 9.34375 6.175781 C 9.234375 6.199219 8.742188 6.453125 8.742188 6.453125 C 8.742188 6.453125 9.296875 6.5 9.40625 6.480469 C 9.488281 6.460938 9.550781 6.40625 9.527344 6.296875 Z M 9.527344 6.296875 "/>
<path style=" stroke:none;fill-rule:nonzero;fill:rgb(100%,92.54902%,17.647059%);fill-opacity:1;" d="M 11.210938 3.78125 C 11.320312 3.757812 11.347656 3.679688 11.328125 3.597656 C 11.308594 3.488281 11.054688 2.996094 11.054688 2.996094 C 11.054688 2.996094 11.007812 3.546875 11.027344 3.65625 C 11.042969 3.742188 11.097656 3.800781 11.210938 3.78125 Z M 11.210938 3.78125 "/>
<path style=" stroke:none;fill-rule:nonzero;fill:rgb(100%,92.54902%,17.647059%);fill-opacity:1;" d="M 11.289062 9.960938 C 11.242188 9.964844 11.191406 9.96875 11.144531 9.984375 C 11.078125 9.996094 11.015625 10.015625 10.949219 10.027344 L 10.921875 10.03125 L 10.878906 10.035156 C 10.882812 10.046875 10.882812 10.058594 10.882812 10.074219 C 10.882812 10.085938 10.882812 10.097656 10.878906 10.109375 C 10.875 10.117188 10.867188 10.128906 10.859375 10.136719 C 10.851562 10.148438 10.839844 10.15625 10.828125 10.160156 C 10.820312 10.167969 10.804688 10.167969 10.792969 10.171875 C 10.78125 10.171875 10.769531 10.171875 10.753906 10.164062 C 10.742188 10.160156 10.730469 10.152344 10.722656 10.144531 C 10.707031 10.148438 10.695312 10.148438 10.679688 10.152344 C 10.667969 10.152344 10.65625 10.152344 10.644531 10.152344 C 10.632812 10.148438 10.617188 10.144531 10.605469 10.136719 C 10.59375 10.132812 10.582031 10.125 10.570312 10.121094 C 10.519531 10.148438 10.46875 10.175781 10.4375 10.222656 C 10.421875 10.246094 10.417969 10.269531 10.414062 10.296875 C 10.414062 10.332031 10.421875 10.363281 10.4375 10.394531 C 10.441406 10.402344 10.445312 10.363281 10.460938 10.355469 C 10.488281 10.335938 10.519531 10.320312 10.554688 10.3125 C 10.582031 10.296875 10.578125 10.3125 10.566406 10.332031 C 10.566406 10.34375 10.550781 10.390625 10.570312 10.367188 C 10.664062 10.324219 10.769531 10.316406 10.871094 10.308594 C 11.019531 10.292969 11.167969 10.289062 11.320312 10.289062 C 11.457031 10.289062 11.597656 10.292969 11.738281 10.296875 C 11.804688 10.300781 11.871094 10.3125 11.9375 10.304688 C 11.953125 10.300781 11.980469 10.296875 11.988281 10.289062 C 11.957031 10.269531 11.921875 10.269531 11.890625 10.265625 L 11.625 10.265625 C 11.550781 10.257812 11.472656 10.257812 11.402344 10.230469 C 11.382812 10.222656 11.367188 10.207031 11.347656 10.222656 C 11.320312 10.234375 11.292969 10.238281 11.265625 10.242188 C 11.214844 10.246094 11.167969 10.234375 11.121094 10.21875 C 11.152344 10.171875 11.195312 10.132812 11.230469 10.089844 C 11.199219 10.085938 11.171875 10.078125 11.144531 10.074219 C 11.195312 10.039062 11.242188 9.996094 11.289062 9.960938 Z M 11.289062 9.960938 "/>
<path style=" stroke:none;fill-rule:nonzero;fill:rgb(100%,92.54902%,17.647059%);fill-opacity:1;" d="M 13.472656 10.445312 C 13.371094 10.503906 13.292969 10.398438 13.207031 10.363281 C 13.148438 10.398438 13.140625 10.507812 13.085938 10.558594 C 13.015625 10.636719 12.933594 10.539062 12.941406 10.460938 C 12.859375 10.53125 12.816406 10.683594 12.6875 10.664062 C 12.625 10.613281 12.578125 10.507812 12.53125 10.628906 C 12.492188 10.6875 12.390625 10.773438 12.335938 10.683594 C 12.320312 10.605469 12.28125 10.511719 12.238281 10.636719 C 12.207031 10.726562 12.113281 10.789062 12.023438 10.75 C 11.972656 10.710938 12.0625 10.558594 12 10.570312 C 11.902344 10.632812 11.847656 10.789062 11.714844 10.777344 C 11.664062 10.71875 11.746094 10.621094 11.691406 10.554688 C 11.625 10.640625 11.550781 10.765625 11.433594 10.777344 C 11.378906 10.730469 11.4375 10.601562 11.402344 10.582031 C 11.28125 10.652344 11.15625 10.78125 11.007812 10.742188 C 11.066406 10.519531 11.308594 10.441406 11.511719 10.421875 C 11.863281 10.378906 12.234375 10.457031 12.570312 10.332031 C 12.625 10.300781 12.757812 10.25 12.710938 10.175781 C 12.667969 10.113281 12.820312 10.136719 12.835938 10.066406 C 12.824219 9.976562 12.902344 9.988281 12.980469 9.980469 C 13.320312 9.964844 13.65625 10.039062 14 10.050781 C 14.023438 10.214844 13.839844 10.332031 13.691406 10.28125 C 13.621094 10.292969 13.515625 10.117188 13.535156 10.246094 C 13.523438 10.3125 13.53125 10.398438 13.472656 10.445312 M 10.566406 10.105469 C 10.644531 10.175781 10.703125 10.089844 10.777344 10.058594 C 11.023438 9.972656 11.238281 9.824219 11.453125 9.675781 C 11.582031 9.570312 11.691406 9.429688 11.867188 9.398438 C 12.203125 9.292969 12.5625 9.308594 12.902344 9.210938 C 13.164062 8.859375 13.601562 8.734375 13.96875 8.527344 C 14.050781 8.503906 14.082031 8.433594 14.109375 8.359375 C 14.25 8.140625 14.441406 7.941406 14.667969 7.808594 C 14.773438 7.75 14.902344 7.714844 15.023438 7.742188 C 15.015625 7.886719 14.933594 8.015625 14.832031 8.113281 C 14.914062 8.113281 14.984375 8.0625 15.066406 8.0625 C 15.09375 8.210938 14.933594 8.289062 14.851562 8.382812 C 14.898438 8.394531 15.078125 8.40625 14.980469 8.453125 C 14.855469 8.542969 14.710938 8.601562 14.59375 8.703125 C 14.703125 8.722656 14.714844 8.746094 14.605469 8.785156 C 14.546875 8.824219 14.429688 8.839844 14.421875 8.917969 C 14.5 8.964844 14.382812 9.015625 14.335938 9.03125 C 14.25 9.050781 14.160156 9.089844 14.273438 9.15625 C 14.230469 9.222656 14.136719 9.238281 14.058594 9.230469 C 14.082031 9.304688 14.117188 9.390625 14.019531 9.421875 C 13.800781 9.589844 13.542969 9.707031 13.269531 9.734375 C 13.613281 9.761719 13.964844 9.699219 14.257812 9.511719 C 14.296875 9.464844 14.5 9.417969 14.386719 9.378906 C 14.335938 9.355469 14.21875 9.332031 14.210938 9.289062 C 14.371094 9.191406 14.570312 9.226562 14.742188 9.167969 C 14.746094 9.113281 14.613281 9.128906 14.5625 9.117188 C 14.441406 9.105469 14.449219 9.078125 14.566406 9.066406 C 14.710938 9.027344 14.875 9.019531 15 8.921875 C 14.898438 8.878906 14.773438 8.917969 14.667969 8.878906 C 14.847656 8.800781 15.058594 8.792969 15.222656 8.675781 C 15.296875 8.59375 15.128906 8.617188 15.078125 8.621094 C 14.976562 8.636719 14.933594 8.589844 15.046875 8.546875 C 15.238281 8.40625 15.484375 8.3125 15.621094 8.105469 C 15.65625 8.058594 15.699219 7.917969 15.59375 7.96875 C 15.460938 8.011719 15.339844 8.164062 15.1875 8.117188 C 15.492188 7.882812 15.78125 7.613281 15.988281 7.289062 C 16 7.195312 15.851562 7.183594 15.8125 7.257812 C 15.617188 7.445312 15.441406 7.667969 15.191406 7.785156 C 15.429688 7.554688 15.628906 7.28125 15.800781 6.996094 C 15.835938 6.914062 15.9375 6.8125 15.882812 6.71875 C 15.796875 6.644531 15.6875 6.710938 15.640625 6.796875 C 15.488281 6.996094 15.375 7.226562 15.179688 7.390625 C 15.351562 7.0625 15.527344 6.714844 15.53125 6.339844 C 15.53125 6.261719 15.515625 6.148438 15.410156 6.160156 C 15.328125 6.175781 15.347656 6.300781 15.3125 6.363281 C 15.234375 6.621094 15.199219 6.898438 15.046875 7.125 C 15.082031 6.917969 15.140625 6.699219 15.09375 6.488281 C 15.074219 6.394531 14.921875 6.433594 14.941406 6.527344 C 14.757812 7.449219 14.140625 8.253906 13.328125 8.722656 C 12.960938 8.929688 12.546875 9.066406 12.125 9.128906 C 12.011719 9.152344 11.890625 9.136719 11.78125 9.175781 C 11.519531 9.378906 11.359375 9.714844 11.027344 9.820312 C 10.878906 9.894531 10.683594 9.910156 10.578125 10.046875 C 10.570312 10.066406 10.566406 10.085938 10.566406 10.105469 "/>
<path style=" stroke:none;fill-rule:nonzero;fill:rgb(100%,92.54902%,17.647059%);fill-opacity:1;" d="M 11.5625 9.167969 C 11.511719 9.257812 11.484375 9.359375 11.421875 9.441406 C 11.230469 9.269531 10.957031 9.273438 10.714844 9.261719 C 10.515625 9.25 10.300781 9.234375 10.148438 9.089844 C 9.984375 8.960938 9.855469 8.789062 9.671875 8.679688 C 9.507812 8.636719 9.34375 8.578125 9.210938 8.464844 C 8.925781 8.234375 8.765625 7.894531 8.488281 7.65625 C 8.4375 7.601562 8.375 7.5625 8.316406 7.519531 C 8.257812 7.53125 8.285156 7.652344 8.214844 7.59375 C 8.179688 7.566406 8.085938 7.5625 8.074219 7.601562 C 8.160156 7.710938 8.246094 7.839844 8.257812 7.980469 C 8.199219 7.988281 8.097656 7.96875 8.066406 7.992188 C 8.144531 8.105469 8.242188 8.207031 8.355469 8.289062 C 8.300781 8.296875 8.195312 8.292969 8.175781 8.3125 C 8.285156 8.402344 8.402344 8.496094 8.550781 8.519531 C 8.578125 8.558594 8.507812 8.632812 8.566406 8.667969 C 8.601562 8.683594 8.71875 8.707031 8.640625 8.746094 C 8.585938 8.785156 8.605469 8.871094 8.675781 8.871094 C 8.71875 8.890625 8.820312 8.898438 8.828125 8.9375 C 8.789062 8.976562 8.664062 9.027344 8.769531 9.0625 C 8.871094 9.117188 8.980469 9.15625 9.09375 9.160156 C 9.039062 9.207031 8.96875 9.234375 8.910156 9.277344 C 9.171875 9.429688 9.457031 9.53125 9.742188 9.625 C 9.855469 9.664062 9.96875 9.699219 10.085938 9.722656 C 9.746094 9.703125 9.417969 9.601562 9.105469 9.464844 C 8.945312 9.390625 8.78125 9.324219 8.617188 9.261719 C 8.691406 9.226562 8.773438 9.214844 8.847656 9.183594 C 8.691406 9.152344 8.523438 9.140625 8.386719 9.058594 C 8.40625 9.019531 8.488281 9.015625 8.53125 9 C 8.613281 8.980469 8.664062 8.953125 8.546875 8.949219 C 8.429688 8.914062 8.296875 8.929688 8.191406 8.859375 C 8.199219 8.816406 8.308594 8.832031 8.351562 8.8125 C 8.40625 8.804688 8.46875 8.796875 8.511719 8.757812 C 8.332031 8.683594 8.09375 8.734375 7.949219 8.574219 C 7.917969 8.515625 8.054688 8.5625 8.089844 8.554688 C 8.1875 8.554688 8.292969 8.582031 8.386719 8.542969 C 8.121094 8.429688 7.835938 8.320312 7.636719 8.105469 C 7.613281 8.070312 7.546875 7.976562 7.601562 7.964844 C 7.757812 7.984375 7.871094 8.15625 8.039062 8.128906 C 8.0625 8.097656 7.941406 8.050781 7.910156 8.007812 C 7.667969 7.796875 7.429688 7.566406 7.257812 7.292969 C 7.246094 7.199219 7.390625 7.183594 7.425781 7.257812 C 7.613281 7.4375 7.785156 7.648438 8.019531 7.773438 C 8.101562 7.8125 7.972656 7.722656 7.953125 7.691406 C 7.738281 7.441406 7.53125 7.175781 7.378906 6.882812 C 7.355469 6.828125 7.308594 6.730469 7.390625 6.703125 C 7.472656 6.664062 7.550781 6.71875 7.59375 6.789062 C 7.75 6.988281 7.867188 7.226562 8.066406 7.390625 C 7.898438 7.066406 7.71875 6.722656 7.710938 6.34375 C 7.714844 6.273438 7.722656 6.160156 7.820312 6.164062 C 7.902344 6.152344 7.890625 6.257812 7.917969 6.308594 C 8 6.585938 8.035156 6.886719 8.199219 7.128906 C 8.164062 6.921875 8.109375 6.710938 8.144531 6.503906 C 8.152344 6.4375 8.230469 6.414062 8.28125 6.457031 C 8.320312 6.554688 8.328125 6.679688 8.367188 6.785156 C 8.578125 7.507812 9.050781 8.140625 9.667969 8.566406 C 10.175781 8.914062 10.777344 9.121094 11.394531 9.160156 C 11.449219 9.164062 11.503906 9.164062 11.5625 9.167969 "/>
<path style=" stroke:none;fill-rule:nonzero;fill:rgb(100%,92.54902%,17.647059%);fill-opacity:1;" d="M 10.8125 10.09375 C 10.8125 10.109375 10.796875 10.125 10.78125 10.125 C 10.761719 10.125 10.746094 10.109375 10.746094 10.09375 C 10.746094 10.074219 10.761719 10.058594 10.78125 10.058594 C 10.796875 10.058594 10.8125 10.074219 10.8125 10.09375 Z M 10.8125 10.09375 "/>
<path style="fill-rule:nonzero;fill:rgb(100%,92.54902%,17.647059%);fill-opacity:1;stroke-width:0.381;stroke-linecap:butt;stroke-linejoin:miter;stroke:rgb(0%,67.058824%,76.078431%);stroke-opacity:1;stroke-miterlimit:4;" d="M 1020.647321 720.424107 C 1020.647321 720.982143 1020.368304 721.540179 1019.810268 721.540179 C 1019.252232 721.540179 1018.973214 720.982143 1018.973214 720.424107 C 1018.973214 719.866071 1019.252232 719.587054 1019.810268 719.587054 C 1020.368304 719.587054 1020.647321 719.866071 1020.647321 720.424107 Z M 1020.647321 720.424107 " transform="matrix(0.014,0,0,0.014,-3.5,0)"/>
<path style=" stroke:none;fill-rule:nonzero;fill:rgb(100%,92.54902%,17.647059%);fill-opacity:1;" d="M 1.679688 1.019531 C 1.679688 1.019531 1.546875 0.90625 1.5 0.964844 C 1.425781 1.054688 1.726562 1.511719 1.726562 1.671875 C 1.726562 1.933594 1.550781 2.003906 1.335938 2.042969 C 1.1875 2.066406 0.953125 2.03125 0.953125 2.03125 C 0.996094 1.972656 1.027344 1.953125 1.101562 1.949219 C 1.015625 1.90625 0.933594 1.8125 0.933594 1.664062 C 0.933594 1.4375 1.027344 1.347656 1.027344 1.089844 C 1.027344 0.949219 0.910156 0.769531 0.910156 0.769531 C 1.113281 0.789062 1.214844 0.980469 1.15625 1.132812 C 1.191406 1.136719 1.21875 1.128906 1.246094 1.105469 C 1.261719 1.148438 1.238281 1.195312 1.207031 1.238281 C 1.230469 1.25 1.25 1.242188 1.289062 1.234375 C 1.285156 1.277344 1.261719 1.324219 1.195312 1.367188 C 1.382812 1.320312 1.496094 1.449219 1.496094 1.582031 C 1.496094 1.683594 1.421875 1.757812 1.355469 1.757812 C 1.332031 1.757812 1.296875 1.746094 1.28125 1.734375 C 1.265625 1.761719 1.273438 1.796875 1.285156 1.828125 C 1.234375 1.8125 1.203125 1.78125 1.226562 1.71875 C 1.1875 1.714844 1.15625 1.703125 1.136719 1.679688 C 1.15625 1.648438 1.1875 1.632812 1.226562 1.636719 C 1.199219 1.578125 1.230469 1.542969 1.277344 1.515625 C 1.277344 1.515625 1.246094 1.636719 1.320312 1.636719 C 1.355469 1.636719 1.386719 1.625 1.386719 1.574219 C 1.386719 1.53125 1.347656 1.472656 1.261719 1.476562 C 1.171875 1.480469 1.101562 1.535156 1.101562 1.675781 C 1.101562 1.804688 1.207031 1.867188 1.34375 1.871094 C 1.46875 1.875 1.558594 1.808594 1.558594 1.683594 C 1.558594 1.511719 1.316406 1.125 1.316406 0.972656 C 1.316406 0.859375 1.417969 0.796875 1.515625 0.796875 C 1.648438 0.796875 1.757812 0.925781 1.757812 0.925781 Z M 1.679688 1.019531 "/>
<path style=" stroke:none;fill-rule:nonzero;fill:rgb(100%,92.54902%,17.647059%);fill-opacity:1;" d="M 1.707031 4.089844 C 1.707031 4.375 1.453125 4.519531 1.253906 4.519531 C 0.984375 4.519531 0.839844 4.359375 0.839844 4.148438 C 0.839844 4.027344 0.863281 3.953125 0.917969 3.839844 C 0.917969 3.839844 1.363281 2.914062 1.535156 2.554688 C 1.558594 2.511719 1.5625 2.460938 1.5625 2.386719 C 1.5625 2.269531 1.453125 2.175781 1.335938 2.171875 C 1.230469 2.171875 1.113281 2.273438 1.113281 2.390625 C 1.113281 2.53125 1.1875 2.59375 1.261719 2.59375 C 1.355469 2.59375 1.390625 2.554688 1.390625 2.488281 C 1.390625 2.445312 1.367188 2.425781 1.335938 2.425781 C 1.257812 2.425781 1.28125 2.53125 1.28125 2.53125 C 1.242188 2.523438 1.207031 2.484375 1.226562 2.433594 C 1.195312 2.425781 1.167969 2.410156 1.148438 2.386719 C 1.171875 2.367188 1.195312 2.351562 1.226562 2.34375 C 1.207031 2.285156 1.234375 2.253906 1.285156 2.242188 C 1.277344 2.265625 1.277344 2.285156 1.277344 2.304688 C 1.363281 2.28125 1.492188 2.320312 1.492188 2.46875 C 1.492188 2.613281 1.394531 2.734375 1.203125 2.703125 C 1.25 2.726562 1.273438 2.769531 1.277344 2.816406 C 1.242188 2.804688 1.203125 2.804688 1.203125 2.804688 C 1.226562 2.84375 1.257812 2.875 1.253906 2.953125 C 1.21875 2.9375 1.1875 2.90625 1.144531 2.925781 C 1.214844 3.0625 1.125 3.253906 0.90625 3.300781 C 0.988281 3.203125 1.027344 3.101562 1.027344 3 C 1.027344 2.671875 0.933594 2.617188 0.933594 2.386719 C 0.933594 2.292969 0.984375 2.191406 1.082031 2.121094 L 1.082031 2.125 C 1.015625 2.105469 0.976562 2.074219 0.953125 2.03125 C 1.101562 1.988281 1.3125 1.988281 1.429688 2.035156 C 1.5625 2.050781 1.652344 2.152344 1.679688 2.203125 C 1.707031 2.253906 1.761719 2.441406 1.679688 2.609375 C 1.59375 2.792969 1.179688 3.667969 1.050781 3.941406 C 1.023438 4 1.007812 4.0625 1.007812 4.128906 C 1.007812 4.296875 1.160156 4.355469 1.25 4.355469 C 1.355469 4.355469 1.460938 4.277344 1.460938 4.175781 C 1.460938 4.113281 1.425781 4.074219 1.378906 4.074219 C 1.257812 4.074219 1.265625 4.175781 1.289062 4.238281 C 1.214844 4.207031 1.171875 4.148438 1.183594 4.085938 C 1.144531 4.078125 1.101562 4.058594 1.066406 4.015625 C 1.09375 3.980469 1.128906 3.953125 1.183594 3.953125 C 1.160156 3.855469 1.226562 3.816406 1.289062 3.792969 C 1.269531 3.863281 1.257812 3.945312 1.378906 3.945312 C 1.464844 3.945312 1.535156 3.960938 1.574219 4.015625 C 1.578125 3.941406 1.585938 3.640625 1.585938 3.640625 C 1.589844 3.527344 1.433594 3.527344 1.332031 3.5625 C 1.371094 3.433594 1.449219 3.363281 1.625 3.378906 C 1.582031 3.363281 1.535156 3.320312 1.535156 3.242188 C 1.539062 3.136719 1.625 3.019531 1.679688 2.984375 Z M 1.707031 4.089844 "/>
<path style=" stroke:none;fill-rule:nonzero;fill:rgb(100%,92.54902%,17.647059%);fill-opacity:1;" d="M 1.707031 4.941406 C 1.707031 4.65625 1.453125 4.511719 1.253906 4.511719 C 0.984375 4.511719 0.839844 4.671875 0.839844 4.882812 C 0.839844 5.003906 0.863281 5.078125 0.917969 5.191406 C 0.917969 5.191406 1.363281 6.117188 1.535156 6.476562 C 1.558594 6.519531 1.5625 6.570312 1.5625 6.644531 C 1.5625 6.761719 1.453125 6.855469 1.335938 6.859375 C 1.230469 6.859375 1.113281 6.757812 1.113281 6.640625 C 1.113281 6.5 1.1875 6.4375 1.261719 6.4375 C 1.355469 6.4375 1.390625 6.476562 1.390625 6.542969 C 1.390625 6.585938 1.367188 6.605469 1.335938 6.605469 C 1.257812 6.605469 1.28125 6.5 1.28125 6.5 C 1.242188 6.507812 1.207031 6.546875 1.226562 6.597656 C 1.195312 6.605469 1.167969 6.621094 1.148438 6.644531 C 1.171875 6.664062 1.195312 6.679688 1.226562 6.6875 C 1.207031 6.746094 1.234375 6.777344 1.285156 6.789062 C 1.277344 6.765625 1.277344 6.746094 1.277344 6.722656 C 1.363281 6.75 1.492188 6.710938 1.492188 6.5625 C 1.492188 6.417969 1.394531 6.296875 1.203125 6.328125 C 1.25 6.304688 1.273438 6.261719 1.277344 6.210938 C 1.242188 6.226562 1.203125 6.226562 1.203125 6.226562 C 1.226562 6.1875 1.257812 6.15625 1.253906 6.078125 C 1.21875 6.09375 1.1875 6.125 1.144531 6.105469 C 1.214844 5.96875 1.125 5.777344 0.90625 5.730469 C 0.988281 5.824219 1.027344 5.929688 1.027344 6.03125 C 1.027344 6.359375 0.933594 6.414062 0.933594 6.640625 C 0.933594 6.738281 0.984375 6.839844 1.082031 6.910156 L 1.082031 6.90625 C 1.015625 6.925781 0.976562 6.957031 0.953125 7 C 1.101562 7.042969 1.3125 7.039062 1.429688 6.996094 C 1.5625 6.980469 1.652344 6.878906 1.679688 6.828125 C 1.707031 6.777344 1.761719 6.589844 1.679688 6.421875 C 1.59375 6.238281 1.179688 5.363281 1.050781 5.089844 C 1.023438 5.03125 1.007812 4.96875 1.007812 4.902344 C 1.007812 4.734375 1.160156 4.675781 1.25 4.675781 C 1.355469 4.675781 1.460938 4.753906 1.460938 4.855469 C 1.460938 4.917969 1.425781 4.957031 1.378906 4.957031 C 1.257812 4.957031 1.265625 4.855469 1.289062 4.792969 C 1.214844 4.824219 1.171875 4.882812 1.183594 4.945312 C 1.144531 4.953125 1.101562 4.972656 1.066406 5.015625 C 1.09375 5.050781 1.128906 5.078125 1.183594 5.078125 C 1.160156 5.175781 1.226562 5.214844 1.289062 5.238281 C 1.269531 5.167969 1.257812 5.085938 1.378906 5.085938 C 1.464844 5.085938 1.535156 5.070312 1.574219 5.015625 C 1.578125 5.089844 1.585938 5.390625 1.585938 5.390625 C 1.589844 5.503906 1.433594 5.5 1.332031 5.46875 C 1.371094 5.597656 1.449219 5.667969 1.625 5.652344 C 1.582031 5.667969 1.535156 5.710938 1.535156 5.789062 C 1.539062 5.894531 1.625 6.011719 1.679688 6.046875 Z M 1.707031 4.941406 "/>
<path style=" stroke:none;fill-rule:nonzero;fill:rgb(100%,92.54902%,17.647059%);fill-opacity:1;" d="M 1.679688 1.019531 C 1.679688 1.019531 1.816406 0.90625 1.859375 0.964844 C 1.933594 1.054688 1.632812 1.511719 1.632812 1.671875 C 1.632812 1.933594 1.808594 2.003906 2.027344 2.042969 C 2.171875 2.066406 2.40625 2.03125 2.40625 2.03125 C 2.363281 1.972656 2.335938 1.953125 2.257812 1.949219 C 2.34375 1.90625 2.425781 1.8125 2.425781 1.664062 C 2.425781 1.4375 2.335938 1.347656 2.335938 1.089844 C 2.335938 0.949219 2.449219 0.769531 2.449219 0.769531 C 2.246094 0.789062 2.144531 0.980469 2.203125 1.132812 C 2.167969 1.136719 2.140625 1.128906 2.113281 1.105469 C 2.097656 1.148438 2.121094 1.195312 2.15625 1.238281 C 2.128906 1.25 2.109375 1.242188 2.070312 1.234375 C 2.074219 1.277344 2.097656 1.324219 2.164062 1.367188 C 1.980469 1.320312 1.867188 1.449219 1.867188 1.582031 C 1.867188 1.683594 1.9375 1.757812 2.007812 1.757812 C 2.027344 1.757812 2.0625 1.746094 2.082031 1.734375 C 2.09375 1.761719 2.085938 1.796875 2.074219 1.828125 C 2.125 1.8125 2.15625 1.78125 2.132812 1.71875 C 2.171875 1.714844 2.203125 1.703125 2.226562 1.679688 C 2.203125 1.648438 2.171875 1.632812 2.132812 1.636719 C 2.160156 1.578125 2.128906 1.542969 2.082031 1.515625 C 2.082031 1.515625 2.113281 1.636719 2.039062 1.636719 C 2.003906 1.636719 1.972656 1.625 1.972656 1.574219 C 1.972656 1.53125 2.011719 1.472656 2.097656 1.476562 C 2.1875 1.480469 2.257812 1.535156 2.257812 1.675781 C 2.257812 1.804688 2.152344 1.867188 2.015625 1.871094 C 1.894531 1.875 1.800781 1.808594 1.800781 1.683594 C 1.800781 1.511719 2.042969 1.125 2.042969 0.972656 C 2.042969 0.859375 1.941406 0.796875 1.84375 0.796875 C 1.714844 0.796875 1.605469 0.925781 1.605469 0.925781 Z M 1.679688 1.019531 "/>
<path style=" stroke:none;fill-rule:nonzero;fill:rgb(100%,92.54902%,17.647059%);fill-opacity:1;" d="M 1.652344 4.089844 C 1.652344 4.375 1.90625 4.519531 2.105469 4.519531 C 2.375 4.519531 2.519531 4.359375 2.519531 4.148438 C 2.519531 4.027344 2.5 3.953125 2.441406 3.839844 C 2.441406 3.839844 1.996094 2.914062 1.824219 2.554688 C 1.804688 2.511719 1.796875 2.460938 1.796875 2.386719 C 1.796875 2.269531 1.90625 2.175781 2.023438 2.171875 C 2.132812 2.171875 2.246094 2.273438 2.246094 2.390625 C 2.246094 2.53125 2.175781 2.59375 2.097656 2.59375 C 2.007812 2.59375 1.96875 2.554688 1.96875 2.488281 C 1.96875 2.445312 1.992188 2.425781 2.023438 2.425781 C 2.101562 2.425781 2.078125 2.53125 2.078125 2.53125 C 2.121094 2.523438 2.152344 2.484375 2.132812 2.433594 C 2.164062 2.425781 2.191406 2.410156 2.210938 2.386719 C 2.1875 2.367188 2.164062 2.351562 2.132812 2.34375 C 2.152344 2.285156 2.128906 2.253906 2.074219 2.242188 C 2.085938 2.265625 2.085938 2.285156 2.082031 2.304688 C 1.996094 2.28125 1.867188 2.320312 1.867188 2.46875 C 1.867188 2.613281 1.96875 2.734375 2.15625 2.703125 C 2.109375 2.726562 2.089844 2.769531 2.082031 2.816406 C 2.117188 2.804688 2.15625 2.804688 2.15625 2.804688 C 2.132812 2.84375 2.101562 2.875 2.105469 2.953125 C 2.140625 2.9375 2.171875 2.90625 2.21875 2.925781 C 2.148438 3.0625 2.234375 3.253906 2.453125 3.300781 C 2.371094 3.203125 2.332031 3.101562 2.332031 3 C 2.332031 2.671875 2.425781 2.617188 2.425781 2.386719 C 2.425781 2.292969 2.375 2.191406 2.277344 2.121094 L 2.277344 2.125 C 2.34375 2.105469 2.382812 2.074219 2.40625 2.03125 C 2.261719 1.988281 2.046875 1.988281 1.929688 2.035156 C 1.800781 2.050781 1.707031 2.152344 1.679688 2.203125 C 1.652344 2.253906 1.601562 2.441406 1.679688 2.609375 C 1.765625 2.792969 2.179688 3.667969 2.308594 3.941406 C 2.335938 4 2.351562 4.0625 2.351562 4.128906 C 2.351562 4.296875 2.199219 4.355469 2.109375 4.355469 C 2.003906 4.355469 1.898438 4.277344 1.898438 4.175781 C 1.898438 4.113281 1.933594 4.074219 1.984375 4.074219 C 2.101562 4.074219 2.09375 4.175781 2.070312 4.238281 C 2.144531 4.207031 2.1875 4.148438 2.175781 4.085938 C 2.21875 4.078125 2.257812 4.058594 2.292969 4.015625 C 2.265625 3.980469 2.230469 3.953125 2.175781 3.953125 C 2.199219 3.855469 2.132812 3.816406 2.070312 3.792969 C 2.089844 3.863281 2.105469 3.945312 1.984375 3.945312 C 1.894531 3.945312 1.824219 3.960938 1.785156 4.015625 C 1.78125 3.941406 1.773438 3.640625 1.773438 3.640625 C 1.769531 3.527344 1.925781 3.527344 2.027344 3.5625 C 1.988281 3.433594 1.910156 3.363281 1.734375 3.378906 C 1.777344 3.363281 1.824219 3.320312 1.824219 3.242188 C 1.824219 3.136719 1.738281 3.019531 1.679688 2.984375 Z M 1.652344 4.089844 "/>
<path style=" stroke:none;fill-rule:nonzero;fill:rgb(100%,92.54902%,17.647059%);fill-opacity:1;" d="M 1.652344 4.941406 C 1.652344 4.65625 1.90625 4.511719 2.105469 4.511719 C 2.375 4.511719 2.519531 4.671875 2.519531 4.882812 C 2.519531 5.003906 2.5 5.078125 2.441406 5.191406 C 2.441406 5.191406 1.996094 6.117188 1.824219 6.476562 C 1.804688 6.519531 1.796875 6.570312 1.796875 6.644531 C 1.796875 6.761719 1.90625 6.855469 2.023438 6.859375 C 2.132812 6.859375 2.246094 6.757812 2.246094 6.640625 C 2.246094 6.5 2.175781 6.4375 2.097656 6.4375 C 2.007812 6.4375 1.96875 6.476562 1.96875 6.542969 C 1.96875 6.585938 1.992188 6.605469 2.023438 6.605469 C 2.101562 6.605469 2.078125 6.5 2.078125 6.5 C 2.121094 6.507812 2.152344 6.546875 2.132812 6.597656 C 2.164062 6.605469 2.191406 6.621094 2.210938 6.644531 C 2.1875 6.664062 2.164062 6.679688 2.132812 6.6875 C 2.152344 6.746094 2.128906 6.777344 2.074219 6.789062 C 2.085938 6.765625 2.085938 6.746094 2.082031 6.722656 C 1.996094 6.75 1.867188 6.710938 1.867188 6.5625 C 1.867188 6.417969 1.96875 6.296875 2.15625 6.328125 C 2.109375 6.304688 2.089844 6.261719 2.082031 6.210938 C 2.117188 6.226562 2.15625 6.226562 2.15625 6.226562 C 2.132812 6.1875 2.101562 6.15625 2.105469 6.078125 C 2.140625 6.09375 2.171875 6.125 2.21875 6.105469 C 2.148438 5.96875 2.234375 5.777344 2.453125 5.730469 C 2.371094 5.824219 2.332031 5.929688 2.332031 6.03125 C 2.332031 6.359375 2.425781 6.414062 2.425781 6.640625 C 2.425781 6.738281 2.375 6.839844 2.277344 6.910156 L 2.277344 6.90625 C 2.34375 6.925781 2.382812 6.957031 2.40625 7 C 2.261719 7.042969 2.046875 7.039062 1.929688 6.996094 C 1.800781 6.980469 1.707031 6.878906 1.679688 6.828125 C 1.652344 6.777344 1.601562 6.589844 1.679688 6.421875 C 1.765625 6.238281 2.179688 5.363281 2.308594 5.089844 C 2.335938 5.03125 2.351562 4.96875 2.351562 4.902344 C 2.351562 4.734375 2.199219 4.675781 2.109375 4.675781 C 2.003906 4.675781 1.898438 4.753906 1.898438 4.855469 C 1.898438 4.917969 1.933594 4.957031 1.984375 4.957031 C 2.101562 4.957031 2.09375 4.855469 2.070312 4.792969 C 2.144531 4.824219 2.1875 4.882812 2.175781 4.945312 C 2.21875 4.953125 2.257812 4.972656 2.292969 5.015625 C 2.265625 5.050781 2.230469 5.078125 2.175781 5.078125 C 2.199219 5.175781 2.132812 5.214844 2.070312 5.238281 C 2.089844 5.167969 2.105469 5.085938 1.984375 5.085938 C 1.894531 5.085938 1.824219 5.070312 1.785156 5.015625 C 1.78125 5.089844 1.773438 5.390625 1.773438 5.390625 C 1.769531 5.503906 1.925781 5.5 2.027344 5.46875 C 1.988281 5.597656 1.910156 5.667969 1.734375 5.652344 C 1.777344 5.667969 1.824219 5.710938 1.824219 5.789062 C 1.824219 5.894531 1.738281 6.011719 1.679688 6.046875 Z M 1.652344 4.941406 "/>
<path style=" stroke:none;fill-rule:nonzero;fill:rgb(100%,92.54902%,17.647059%);fill-opacity:1;" d="M 1.679688 12.980469 C 1.679688 12.980469 1.546875 13.09375 1.5 13.035156 C 1.425781 12.945312 1.726562 12.488281 1.726562 12.328125 C 1.726562 12.066406 1.550781 11.996094 1.335938 11.957031 C 1.1875 11.933594 0.953125 11.96875 0.953125 11.96875 C 0.996094 12.027344 1.027344 12.046875 1.101562 12.050781 C 1.015625 12.09375 0.933594 12.1875 0.933594 12.335938 C 0.933594 12.5625 1.027344 12.652344 1.027344 12.910156 C 1.027344 13.050781 0.910156 13.230469 0.910156 13.230469 C 1.113281 13.210938 1.214844 13.019531 1.15625 12.867188 C 1.191406 12.863281 1.21875 12.871094 1.246094 12.894531 C 1.261719 12.851562 1.238281 12.804688 1.207031 12.761719 C 1.230469 12.75 1.25 12.757812 1.289062 12.765625 C 1.285156 12.722656 1.261719 12.675781 1.195312 12.632812 C 1.382812 12.679688 1.496094 12.550781 1.496094 12.417969 C 1.496094 12.316406 1.421875 12.242188 1.355469 12.242188 C 1.332031 12.242188 1.296875 12.253906 1.28125 12.265625 C 1.265625 12.238281 1.273438 12.203125 1.285156 12.171875 C 1.234375 12.1875 1.203125 12.21875 1.226562 12.28125 C 1.1875 12.285156 1.15625 12.296875 1.136719 12.320312 C 1.15625 12.351562 1.1875 12.367188 1.226562 12.363281 C 1.199219 12.421875 1.230469 12.457031 1.277344 12.484375 C 1.277344 12.484375 1.246094 12.363281 1.320312 12.363281 C 1.355469 12.363281 1.386719 12.375 1.386719 12.425781 C 1.386719 12.46875 1.347656 12.527344 1.261719 12.523438 C 1.171875 12.519531 1.101562 12.464844 1.101562 12.324219 C 1.101562 12.195312 1.207031 12.132812 1.34375 12.128906 C 1.46875 12.125 1.558594 12.191406 1.558594 12.316406 C 1.558594 12.488281 1.316406 12.875 1.316406 13.027344 C 1.316406 13.140625 1.417969 13.203125 1.515625 13.203125 C 1.648438 13.203125 1.757812 13.074219 1.757812 13.074219 Z M 1.679688 12.980469 "/>
<path style=" stroke:none;fill-rule:nonzero;fill:rgb(100%,92.54902%,17.647059%);fill-opacity:1;" d="M 1.707031 9.910156 C 1.707031 9.625 1.453125 9.480469 1.253906 9.480469 C 0.984375 9.480469 0.839844 9.640625 0.839844 9.851562 C 0.839844 9.972656 0.863281 10.046875 0.917969 10.160156 C 0.917969 10.160156 1.363281 11.085938 1.535156 11.445312 C 1.558594 11.488281 1.5625 11.539062 1.5625 11.613281 C 1.5625 11.730469 1.453125 11.824219 1.335938 11.828125 C 1.230469 11.828125 1.113281 11.726562 1.113281 11.609375 C 1.113281 11.46875 1.1875 11.40625 1.261719 11.40625 C 1.355469 11.40625 1.390625 11.445312 1.390625 11.511719 C 1.390625 11.554688 1.367188 11.574219 1.335938 11.574219 C 1.257812 11.574219 1.28125 11.46875 1.28125 11.46875 C 1.242188 11.476562 1.207031 11.515625 1.226562 11.566406 C 1.195312 11.574219 1.167969 11.589844 1.148438 11.613281 C 1.171875 11.632812 1.195312 11.648438 1.226562 11.65625 C 1.207031 11.714844 1.234375 11.746094 1.285156 11.757812 C 1.277344 11.734375 1.277344 11.714844 1.277344 11.695312 C 1.363281 11.71875 1.492188 11.679688 1.492188 11.53125 C 1.492188 11.386719 1.394531 11.265625 1.203125 11.296875 C 1.25 11.273438 1.273438 11.230469 1.277344 11.183594 C 1.242188 11.195312 1.203125 11.195312 1.203125 11.195312 C 1.226562 11.15625 1.257812 11.125 1.253906 11.046875 C 1.21875 11.0625 1.1875 11.09375 1.144531 11.074219 C 1.214844 10.9375 1.125 10.746094 0.90625 10.699219 C 0.988281 10.796875 1.027344 10.898438 1.027344 11 C 1.027344 11.328125 0.933594 11.382812 0.933594 11.613281 C 0.933594 11.707031 0.984375 11.808594 1.082031 11.878906 L 1.082031 11.875 C 1.015625 11.894531 0.976562 11.925781 0.953125 11.96875 C 1.101562 12.011719 1.3125 12.011719 1.429688 11.964844 C 1.5625 11.949219 1.652344 11.847656 1.679688 11.796875 C 1.707031 11.746094 1.761719 11.558594 1.679688 11.390625 C 1.59375 11.207031 1.179688 10.332031 1.050781 10.058594 C 1.023438 10 1.007812 9.9375 1.007812 9.871094 C 1.007812 9.703125 1.160156 9.644531 1.25 9.644531 C 1.355469 9.644531 1.460938 9.722656 1.460938 9.824219 C 1.460938 9.886719 1.425781 9.925781 1.378906 9.925781 C 1.257812 9.925781 1.265625 9.824219 1.289062 9.761719 C 1.214844 9.792969 1.171875 9.851562 1.183594 9.914062 C 1.144531 9.921875 1.101562 9.941406 1.066406 9.984375 C 1.09375 10.019531 1.128906 10.046875 1.183594 10.046875 C 1.160156 10.144531 1.226562 10.183594 1.289062 10.207031 C 1.269531 10.136719 1.257812 10.054688 1.378906 10.054688 C 1.464844 10.054688 1.535156 10.039062 1.574219 9.984375 C 1.578125 10.058594 1.585938 10.359375 1.585938 10.359375 C 1.589844 10.472656 1.433594 10.472656 1.332031 10.4375 C 1.371094 10.566406 1.449219 10.636719 1.625 10.621094 C 1.582031 10.636719 1.535156 10.679688 1.535156 10.757812 C 1.539062 10.863281 1.625 10.980469 1.679688 11.015625 Z M 1.707031 9.910156 "/>
<path style=" stroke:none;fill-rule:nonzero;fill:rgb(100%,92.54902%,17.647059%);fill-opacity:1;" d="M 1.707031 9.058594 C 1.707031 9.34375 1.453125 9.488281 1.253906 9.488281 C 0.984375 9.488281 0.839844 9.328125 0.839844 9.117188 C 0.839844 8.996094 0.863281 8.921875 0.917969 8.808594 C 0.917969 8.808594 1.363281 7.882812 1.535156 7.523438 C 1.558594 7.480469 1.5625 7.429688 1.5625 7.355469 C 1.5625 7.238281 1.453125 7.144531 1.335938 7.140625 C 1.230469 7.140625 1.113281 7.242188 1.113281 7.359375 C 1.113281 7.5 1.1875 7.5625 1.261719 7.5625 C 1.355469 7.5625 1.390625 7.523438 1.390625 7.457031 C 1.390625 7.414062 1.367188 7.394531 1.335938 7.394531 C 1.257812 7.394531 1.28125 7.5 1.28125 7.5 C 1.242188 7.492188 1.207031 7.453125 1.226562 7.402344 C 1.195312 7.394531 1.167969 7.378906 1.148438 7.355469 C 1.171875 7.335938 1.195312 7.320312 1.226562 7.3125 C 1.207031 7.253906 1.234375 7.222656 1.285156 7.210938 C 1.277344 7.234375 1.277344 7.253906 1.277344 7.277344 C 1.363281 7.25 1.492188 7.289062 1.492188 7.4375 C 1.492188 7.582031 1.394531 7.703125 1.203125 7.671875 C 1.25 7.695312 1.273438 7.738281 1.277344 7.789062 C 1.242188 7.773438 1.203125 7.773438 1.203125 7.773438 C 1.226562 7.8125 1.257812 7.84375 1.253906 7.921875 C 1.21875 7.90625 1.1875 7.875 1.144531 7.894531 C 1.214844 8.03125 1.125 8.222656 0.90625 8.269531 C 0.988281 8.175781 1.027344 8.070312 1.027344 7.96875 C 1.027344 7.640625 0.933594 7.585938 0.933594 7.359375 C 0.933594 7.261719 0.984375 7.160156 1.082031 7.089844 L 1.082031 7.09375 C 1.015625 7.074219 0.976562 7.042969 0.953125 7 C 1.101562 6.957031 1.3125 6.960938 1.429688 7.003906 C 1.5625 7.019531 1.652344 7.121094 1.679688 7.171875 C 1.707031 7.222656 1.761719 7.410156 1.679688 7.578125 C 1.59375 7.761719 1.179688 8.636719 1.050781 8.910156 C 1.023438 8.96875 1.007812 9.03125 1.007812 9.097656 C 1.007812 9.265625 1.160156 9.324219 1.25 9.324219 C 1.355469 9.324219 1.460938 9.246094 1.460938 9.144531 C 1.460938 9.082031 1.425781 9.042969 1.378906 9.042969 C 1.257812 9.042969 1.265625 9.144531 1.289062 9.207031 C 1.214844 9.175781 1.171875 9.117188 1.183594 9.054688 C 1.144531 9.046875 1.101562 9.027344 1.066406 8.984375 C 1.09375 8.949219 1.128906 8.921875 1.183594 8.921875 C 1.160156 8.824219 1.226562 8.785156 1.289062 8.761719 C 1.269531 8.832031 1.257812 8.914062 1.378906 8.914062 C 1.464844 8.914062 1.535156 8.929688 1.574219 8.984375 C 1.578125 8.910156 1.585938 8.609375 1.585938 8.609375 C 1.589844 8.496094 1.433594 8.5 1.332031 8.53125 C 1.371094 8.402344 1.449219 8.332031 1.625 8.347656 C 1.582031 8.332031 1.535156 8.289062 1.535156 8.210938 C 1.539062 8.105469 1.625 7.988281 1.679688 7.953125 Z M 1.707031 9.058594 "/>
<path style=" stroke:none;fill-rule:nonzero;fill:rgb(100%,92.54902%,17.647059%);fill-opacity:1;" d="M 1.679688 12.980469 C 1.679688 12.980469 1.816406 13.09375 1.859375 13.035156 C 1.933594 12.945312 1.632812 12.488281 1.632812 12.328125 C 1.632812 12.066406 1.808594 11.996094 2.027344 11.957031 C 2.171875 11.933594 2.40625 11.96875 2.40625 11.96875 C 2.363281 12.027344 2.335938 12.046875 2.257812 12.050781 C 2.34375 12.09375 2.425781 12.1875 2.425781 12.335938 C 2.425781 12.5625 2.335938 12.652344 2.335938 12.910156 C 2.335938 13.050781 2.449219 13.230469 2.449219 13.230469 C 2.246094 13.210938 2.144531 13.019531 2.203125 12.867188 C 2.167969 12.863281 2.140625 12.871094 2.113281 12.894531 C 2.097656 12.851562 2.121094 12.804688 2.15625 12.761719 C 2.128906 12.75 2.109375 12.757812 2.070312 12.765625 C 2.074219 12.722656 2.097656 12.675781 2.164062 12.632812 C 1.980469 12.679688 1.867188 12.550781 1.867188 12.417969 C 1.867188 12.316406 1.9375 12.242188 2.007812 12.242188 C 2.027344 12.242188 2.0625 12.253906 2.082031 12.265625 C 2.09375 12.238281 2.085938 12.203125 2.074219 12.171875 C 2.125 12.1875 2.15625 12.21875 2.132812 12.28125 C 2.171875 12.285156 2.203125 12.296875 2.226562 12.320312 C 2.203125 12.351562 2.171875 12.367188 2.132812 12.363281 C 2.160156 12.421875 2.128906 12.457031 2.082031 12.484375 C 2.082031 12.484375 2.113281 12.363281 2.039062 12.363281 C 2.003906 12.363281 1.972656 12.375 1.972656 12.425781 C 1.972656 12.46875 2.011719 12.527344 2.097656 12.523438 C 2.1875 12.519531 2.257812 12.464844 2.257812 12.324219 C 2.257812 12.195312 2.152344 12.132812 2.015625 12.128906 C 1.894531 12.125 1.800781 12.191406 1.800781 12.316406 C 1.800781 12.488281 2.042969 12.875 2.042969 13.027344 C 2.042969 13.140625 1.941406 13.203125 1.84375 13.203125 C 1.714844 13.203125 1.605469 13.074219 1.605469 13.074219 Z M 1.679688 12.980469 "/>
<path style=" stroke:none;fill-rule:nonzero;fill:rgb(100%,92.54902%,17.647059%);fill-opacity:1;" d="M 1.652344 9.910156 C 1.652344 9.625 1.90625 9.480469 2.105469 9.480469 C 2.375 9.480469 2.519531 9.640625 2.519531 9.851562 C 2.519531 9.972656 2.5 10.046875 2.441406 10.160156 C 2.441406 10.160156 1.996094 11.085938 1.824219 11.445312 C 1.804688 11.488281 1.796875 11.539062 1.796875 11.613281 C 1.796875 11.730469 1.90625 11.824219 2.023438 11.828125 C 2.132812 11.828125 2.246094 11.726562 2.246094 11.609375 C 2.246094 11.46875 2.175781 11.40625 2.097656 11.40625 C 2.007812 11.40625 1.96875 11.445312 1.96875 11.511719 C 1.96875 11.554688 1.992188 11.574219 2.023438 11.574219 C 2.101562 11.574219 2.078125 11.46875 2.078125 11.46875 C 2.121094 11.476562 2.152344 11.515625 2.132812 11.566406 C 2.164062 11.574219 2.191406 11.589844 2.210938 11.613281 C 2.1875 11.632812 2.164062 11.648438 2.132812 11.65625 C 2.152344 11.714844 2.128906 11.746094 2.074219 11.757812 C 2.085938 11.734375 2.085938 11.714844 2.082031 11.695312 C 1.996094 11.71875 1.867188 11.679688 1.867188 11.53125 C 1.867188 11.386719 1.96875 11.265625 2.15625 11.296875 C 2.109375 11.273438 2.089844 11.230469 2.082031 11.183594 C 2.117188 11.195312 2.15625 11.195312 2.15625 11.195312 C 2.132812 11.15625 2.101562 11.125 2.105469 11.046875 C 2.140625 11.0625 2.171875 11.09375 2.21875 11.074219 C 2.148438 10.9375 2.234375 10.746094 2.453125 10.699219 C 2.371094 10.796875 2.332031 10.898438 2.332031 11 C 2.332031 11.328125 2.425781 11.382812 2.425781 11.613281 C 2.425781 11.707031 2.375 11.808594 2.277344 11.878906 L 2.277344 11.875 C 2.34375 11.894531 2.382812 11.925781 2.40625 11.96875 C 2.261719 12.011719 2.046875 12.011719 1.929688 11.964844 C 1.800781 11.949219 1.707031 11.847656 1.679688 11.796875 C 1.652344 11.746094 1.601562 11.558594 1.679688 11.390625 C 1.765625 11.207031 2.179688 10.332031 2.308594 10.058594 C 2.335938 10 2.351562 9.9375 2.351562 9.871094 C 2.351562 9.703125 2.199219 9.644531 2.109375 9.644531 C 2.003906 9.644531 1.898438 9.722656 1.898438 9.824219 C 1.898438 9.886719 1.933594 9.925781 1.984375 9.925781 C 2.101562 9.925781 2.09375 9.824219 2.070312 9.761719 C 2.144531 9.792969 2.1875 9.851562 2.175781 9.914062 C 2.21875 9.921875 2.257812 9.941406 2.292969 9.984375 C 2.265625 10.019531 2.230469 10.046875 2.175781 10.046875 C 2.199219 10.144531 2.132812 10.183594 2.070312 10.207031 C 2.089844 10.136719 2.105469 10.054688 1.984375 10.054688 C 1.894531 10.054688 1.824219 10.039062 1.785156 9.984375 C 1.78125 10.058594 1.773438 10.359375 1.773438 10.359375 C 1.769531 10.472656 1.925781 10.472656 2.027344 10.4375 C 1.988281 10.566406 1.910156 10.636719 1.734375 10.621094 C 1.777344 10.636719 1.824219 10.679688 1.824219 10.757812 C 1.824219 10.863281 1.738281 10.980469 1.679688 11.015625 Z M 1.652344 9.910156 "/>
<path style=" stroke:none;fill-rule:nonzero;fill:rgb(100%,92.54902%,17.647059%);fill-opacity:1;" d="M 1.652344 9.058594 C 1.652344 9.34375 1.90625 9.488281 2.105469 9.488281 C 2.375 9.488281 2.519531 9.328125 2.519531 9.117188 C 2.519531 8.996094 2.5 8.921875 2.441406 8.808594 C 2.441406 8.808594 1.996094 7.882812 1.824219 7.523438 C 1.804688 7.480469 1.796875 7.429688 1.796875 7.355469 C 1.796875 7.238281 1.90625 7.144531 2.023438 7.140625 C 2.132812 7.140625 2.246094 7.242188 2.246094 7.359375 C 2.246094 7.5 2.175781 7.5625 2.097656 7.5625 C 2.007812 7.5625 1.96875 7.523438 1.96875 7.457031 C 1.96875 7.414062 1.992188 7.394531 2.023438 7.394531 C 2.101562 7.394531 2.078125 7.5 2.078125 7.5 C 2.121094 7.492188 2.152344 7.453125 2.132812 7.402344 C 2.164062 7.394531 2.191406 7.378906 2.210938 7.355469 C 2.1875 7.335938 2.164062 7.320312 2.132812 7.3125 C 2.152344 7.253906 2.128906 7.222656 2.074219 7.210938 C 2.085938 7.234375 2.085938 7.253906 2.082031 7.277344 C 1.996094 7.25 1.867188 7.289062 1.867188 7.4375 C 1.867188 7.582031 1.96875 7.703125 2.15625 7.671875 C 2.109375 7.695312 2.089844 7.738281 2.082031 7.789062 C 2.117188 7.773438 2.15625 7.773438 2.15625 7.773438 C 2.132812 7.8125 2.101562 7.84375 2.105469 7.921875 C 2.140625 7.90625 2.171875 7.875 2.21875 7.894531 C 2.148438 8.03125 2.234375 8.222656 2.453125 8.269531 C 2.371094 8.175781 2.332031 8.070312 2.332031 7.96875 C 2.332031 7.640625 2.425781 7.585938 2.425781 7.359375 C 2.425781 7.261719 2.375 7.160156 2.277344 7.089844 L 2.277344 7.09375 C 2.34375 7.074219 2.382812 7.042969 2.40625 7 C 2.261719 6.957031 2.046875 6.960938 1.929688 7.003906 C 1.800781 7.019531 1.707031 7.121094 1.679688 7.171875 C 1.652344 7.222656 1.601562 7.410156 1.679688 7.578125 C 1.765625 7.761719 2.179688 8.636719 2.308594 8.910156 C 2.335938 8.96875 2.351562 9.03125 2.351562 9.097656 C 2.351562 9.265625 2.199219 9.324219 2.109375 9.324219 C 2.003906 9.324219 1.898438 9.246094 1.898438 9.144531 C 1.898438 9.082031 1.933594 9.042969 1.984375 9.042969 C 2.101562 9.042969 2.09375 9.144531 2.070312 9.207031 C 2.144531 9.175781 2.1875 9.117188 2.175781 9.054688 C 2.21875 9.046875 2.257812 9.027344 2.292969 8.984375 C 2.265625 8.949219 2.230469 8.921875 2.175781 8.921875 C 2.199219 8.824219 2.132812 8.785156 2.070312 8.761719 C 2.089844 8.832031 2.105469 8.914062 1.984375 8.914062 C 1.894531 8.914062 1.824219 8.929688 1.785156 8.984375 C 1.78125 8.910156 1.773438 8.609375 1.773438 8.609375 C 1.769531 8.496094 1.925781 8.5 2.027344 8.53125 C 1.988281 8.402344 1.910156 8.332031 1.734375 8.347656 C 1.777344 8.332031 1.824219 8.289062 1.824219 8.210938 C 1.824219 8.105469 1.738281 7.988281 1.679688 7.953125 Z M 1.652344 9.058594 "/>
</g>
</svg>
